<svg width="34" height="25" viewBox="0 0 34 25" fill="none" xmlns="http://www.w3.org/2000/svg">
<path d="M33.5853 0H0.414546C0.182423 0 0 0.163919 0 0.372496V18.2564C0 18.465 0.182423 18.6289 0.414546 18.6289H23.3859L22.0673 24.5529C22.0423 24.6647 22.0756 24.7765 22.1503 24.8658C22.2333 24.9551 22.3494 25 22.4738 25H30.7661C30.8905 25 31.0066 24.9479 31.0896 24.8658C31.1643 24.7765 31.1973 24.6647 31.1726 24.5529L29.854 18.6289H33.5855C33.8176 18.6289 34 18.465 34 18.2564V0.372496C34.0003 0.163919 33.8179 0 33.5855 0H33.5853ZM30.2601 24.2473H27.0342V20.8941C27.0342 20.6855 26.8518 20.5216 26.6197 20.5216C26.3875 20.5216 26.2051 20.6855 26.2051 20.8941V24.2473H22.9792L24.5383 17.2426V17.2054H28.7013V17.2426L30.2601 24.2473ZM24.1979 16.4602L21.7848 12.697L24.1979 8.94136H29.0326L31.4457 12.697L29.0326 16.4602H24.1979ZM33.1705 17.8836H29.7706C29.7456 17.8836 29.7125 17.891 29.6875 17.8985L29.5134 17.1236C29.5548 17.0939 29.5965 17.064 29.6295 17.0193L32.2831 12.8836C32.3578 12.7719 32.3578 12.6229 32.2831 12.5112L29.6295 8.38298C29.5548 8.2712 29.4221 8.1966 29.273 8.1966H23.9655C23.8161 8.1966 23.6837 8.2712 23.609 8.38298L20.9554 12.5112C20.8807 12.6229 20.8807 12.7719 20.9554 12.8836L23.609 17.0193C23.634 17.064 23.6837 17.0939 23.725 17.1236L23.5593 17.8835H0.828182V0.745016H33.1702L33.1705 17.8836Z" fill="#FF6600"/>
<path d="M2.8408 3.81054H30.1581C30.397 3.81054 30.5848 3.63666 30.5848 3.41541C30.5848 3.19416 30.397 3.02028 30.1581 3.02028L2.8408 3.02002C2.60185 3.02002 2.41406 3.1939 2.41406 3.41515C2.41406 3.63666 2.60185 3.81054 2.8408 3.81054V3.81054Z" fill="#FF6600"/>
<path d="M2.81807 7.79026H19.7901C20.0163 7.79026 20.1941 7.61638 20.1941 7.39513C20.1941 7.17388 20.0163 7 19.7901 7H2.81807C2.59185 7 2.41406 7.17388 2.41406 7.39513C2.41406 7.61638 2.59185 7.79026 2.81807 7.79026Z" fill="#FF6600"/>
<path d="M2.79073 11.9517H17.1074C17.3183 11.9517 17.4841 11.7778 17.4841 11.5565C17.4841 11.3353 17.3183 11.1614 17.1074 11.1614L2.79073 11.1611C2.57981 11.1611 2.41406 11.335 2.41406 11.5563C2.41406 11.7778 2.57981 11.9517 2.79073 11.9517Z" fill="#FF6600"/>
<path d="M2.81807 15.7905H19.7901C20.0163 15.7905 20.1941 15.6166 20.1941 15.3954C20.1941 15.1741 20.0163 15.0003 19.7901 15.0003L2.81807 15C2.59185 15 2.41406 15.1739 2.41406 15.3951C2.41406 15.6166 2.59185 15.7905 2.81807 15.7905Z" fill="#FF6600"/>
<path d="M2.81807 22.7905H19.7901C20.0163 22.7905 20.1941 22.6166 20.1941 22.3954C20.1941 22.1741 20.0163 22.0003 19.7901 22.0003L2.81807 22C2.59185 22 2.41406 22.1739 2.41406 22.3951C2.41406 22.6166 2.59185 22.7905 2.81807 22.7905Z" fill="#FF6600"/>
<path d="M26.4997 10.8C26.2758 10.8 26.0998 10.976 26.0998 11.2C26.0998 11.4239 26.2758 11.5999 26.4997 11.5999C27.1637 11.5999 27.6997 12.1359 27.6997 12.7999C27.6997 13.4639 27.1637 13.9999 26.4997 13.9999C25.8357 13.9999 25.2998 13.4639 25.2998 12.7999C25.2998 12.576 25.1238 12.4 24.8999 12.4C24.676 12.4 24.5 12.576 24.5 12.7999C24.5 13.9041 25.3959 14.8 26.5 14.8C27.6041 14.8 28.5 13.9041 28.5 12.7999C28.4997 11.696 27.6038 10.8 26.4997 10.8Z" fill="#FF6600"/>
</svg>
