<svg width="34" height="25" viewBox="0 0 34 25" fill="none" xmlns="http://www.w3.org/2000/svg">
<path d="M7.48564 16.2756C7.29323 16.1729 7.0149 16.2756 6.84304 16.5162C6.74484 16.6543 6.69574 16.8194 6.70402 16.9708C6.7163 17.1179 6.78167 17.2382 6.89215 17.2964C7.08455 17.399 7.36288 17.2964 7.53474 17.0601C7.63295 16.922 7.68204 16.7569 7.67376 16.6055C7.66149 16.4497 7.59611 16.3337 7.48564 16.2756V16.2756Z" fill="#FF6600"/>
<path d="M27.3831 16.2756C27.1907 16.1729 26.9124 16.2756 26.7405 16.5162C26.6423 16.6543 26.5932 16.8194 26.6015 16.9708C26.6138 17.1179 26.6791 17.2382 26.7896 17.2964C26.982 17.399 27.2603 17.2964 27.4322 17.0601C27.5304 16.922 27.5795 16.7569 27.5712 16.6055C27.5632 16.4497 27.4939 16.3337 27.3831 16.2756V16.2756Z" fill="#FF6600"/>
<path d="M31.8108 17.4088C32.0686 17.4088 32.2978 17.2172 32.3632 16.9451L33.9838 10.2071C33.9921 10.176 33.9878 10.1446 33.9878 10.1135C33.9878 10.0911 34.0001 10.0734 34.0001 10.0556C34.0001 10.0466 33.9961 10.0379 33.9961 10.0245C33.9921 9.98004 33.9838 9.93525 33.9716 9.89077C33.9633 9.85967 33.9593 9.8239 33.947 9.79714C33.943 9.79279 33.947 9.78812 33.943 9.77941L30.8531 3.08621C30.7672 2.85883 30.5625 2.70268 30.3253 2.70268L26.331 2.70237L26.7935 0.776072C26.8386 0.588816 26.8017 0.392546 26.6953 0.24106C26.5888 0.0895823 26.4209 0.00031105 26.2451 0.00031105L6.34315 0C6.02799 0 5.7742 0.276527 5.7742 0.619927C5.7742 0.963326 6.02799 1.23985 6.34315 1.23985H25.504L21.9148 16.1735H10.2067C10.215 15.5669 10.0594 15.0008 9.74022 14.5504C9.29831 13.9261 8.61493 13.5827 7.81273 13.5827C6.38021 13.5827 4.97262 14.6932 4.41597 16.1782H2.45566C2.1405 16.1782 1.88672 16.4547 1.88672 16.7981C1.88672 17.1415 2.1405 17.418 2.45566 17.418H4.17451C4.17051 17.9085 4.28099 18.3633 4.49366 18.7601H2.45568C2.14052 18.7601 1.88673 19.0367 1.88673 19.3801C1.88673 19.7235 2.14052 20 2.45568 20H33.4278C33.7429 20 33.9967 19.7235 33.9967 19.3801C33.9967 19.0367 33.7429 18.7601 33.4278 18.7601L29.0324 18.7598C29.3844 18.372 29.6667 17.9169 29.8591 17.4177L31.8111 17.4174L31.8108 17.4088ZM30.9801 6.1318L32.5065 9.4317H27.0635L27.8574 6.1318H30.9801ZM9.01588 16.6245C8.73755 17.7751 7.61625 18.7515 6.56857 18.7515C6.13066 18.7515 5.76242 18.5776 5.54143 18.2653C5.3042 17.9309 5.24254 17.4581 5.36558 16.9408C5.64392 15.7859 6.76521 14.8139 7.81289 14.8139C8.2508 14.8139 8.61904 14.9877 8.84003 15.3C9.07754 15.6388 9.14291 16.1072 9.01588 16.6245ZM9.13892 18.7515C9.4909 18.3636 9.77323 17.9085 9.9656 17.4093H24.0723C24.0683 17.8998 24.1787 18.3546 24.3914 18.7515H9.13892ZM28.91 16.6245C28.6317 17.7751 27.5104 18.7515 26.4627 18.7515C26.0248 18.7515 25.6605 18.5776 25.4356 18.2653C25.1983 17.9262 25.1327 17.4581 25.2597 16.9408C25.5381 15.7859 26.6594 14.8139 27.707 14.8139C28.1449 14.8139 28.5092 14.9877 28.7342 15.3C28.9714 15.6388 29.0368 16.1072 28.91 16.6245ZM27.7068 13.5743C26.2742 13.5743 24.8666 14.6847 24.31 16.1697H23.0944L23.471 14.6089L26.037 3.94256H29.9699L30.4078 4.89254H27.4204C27.1626 4.89254 26.9334 5.08414 26.868 5.35631L25.7752 9.90009C25.7301 10.0873 25.767 10.2836 25.8734 10.4351C25.9799 10.5866 26.1478 10.6759 26.3236 10.6759H32.6916L31.3696 16.1696H30.097C30.1053 15.5631 29.9497 14.9969 29.6305 14.5465C29.1923 13.9179 28.5089 13.5743 27.7068 13.5743Z" fill="#FF6600"/>
<path d="M16.6812 4.89185H3.0123C2.69714 4.89185 2.44336 5.16828 2.44336 5.51155C2.44336 5.85483 2.69714 6.13126 3.0123 6.13126H16.6812C16.9964 6.13126 17.2502 5.85483 17.2502 5.51155C17.2499 5.16796 16.9964 4.89185 16.6812 4.89185Z" fill="#FF6600"/>
<path d="M9.27832 10.0556C9.27832 10.3989 9.53211 10.6753 9.84726 10.6753H18.8303C19.1454 10.6753 19.3992 10.3946 19.3992 10.0556C19.3992 9.71234 19.1454 9.43591 18.8303 9.43591H9.84726C9.53211 9.43591 9.27832 9.71234 9.27832 10.0556Z" fill="#FF6600"/>
<path d="M5.38567 12.7399C5.38567 12.3967 5.13189 12.1202 4.81673 12.1202H0.568943C0.253785 12.1202 0 12.3967 0 12.7399C0 13.0832 0.253785 13.3597 0.568943 13.3597H4.81271C5.12787 13.3597 5.38564 13.0832 5.38564 12.7399H5.38567Z" fill="#FF6600"/>
<path fill-rule="evenodd" clip-rule="evenodd" d="M0.809769 23.8001C0.596098 23.7982 0.38996 23.8606 0.237937 23.9732C0.0856343 24.0859 0 24.2398 0 24.4C0 24.5605 0.0856343 24.7144 0.237937 24.8269C0.38996 24.9397 0.596098 25.0021 0.809769 25H31.1902C31.4039 25.0021 31.61 24.9397 31.7621 24.8269C31.9144 24.7144 32 24.5605 32 24.4C32 24.2398 31.9144 24.0859 31.7621 23.9732C31.61 23.8606 31.4039 23.7982 31.1902 23.8001H0.809769Z" fill="#FF6600"/>
</svg>
