<svg width="34" height="25" viewBox="0 0 34 25" fill="none" xmlns="http://www.w3.org/2000/svg">
<path d="M0.375908 11.8438C0.44552 11.8438 0.514889 11.8094 0.584501 11.7747L2.56661 10.3244L3.74854 13.8811C3.78323 14.0191 3.92245 14.1229 4.06143 14.1229H5.13929L6.18251 21.9959C6.21719 23.8604 11.7112 25 16.9965 25C22.2819 25 27.741 23.8949 27.8105 21.9959L28.8537 14.1229H29.9316C30.0706 14.1229 30.2098 14.0193 30.2445 13.8811L31.4616 10.3244L33.4437 11.7747C33.5133 11.8091 33.5827 11.8438 33.6523 11.8438C33.7219 11.8438 33.7913 11.8094 33.8609 11.7747C33.9999 11.6711 34.0348 11.5329 33.9652 11.3949L32.5048 7.38924L33.8609 3.62546C33.8956 3.52189 33.8956 3.41831 33.8262 3.34918L32.018 0.241547V0.207103C31.9833 0.172659 31.9833 0.137974 31.9484 0.137974C31.9137 0.10353 31.8788 0.10353 31.8441 0.10353H31.8094H31.7398L27.1498 0.310677C27.0802 0.310677 27.0108 0.345121 26.9412 0.414251L25.6897 1.45023L25.5854 1.3811C25.5158 1.34666 25.4464 1.31197 25.3768 1.31197H20.7175C20.5785 1.31197 20.4739 1.3811 20.4046 1.51912C20.335 1.65714 20.3699 1.7954 20.4393 1.89897L22.4214 4.28165L18.9442 6.97504C18.8399 7.07861 18.7703 7.21687 18.8399 7.35489L19.7788 9.80669L16.997 12.1894L14.2152 9.80669L15.1541 7.35489C15.2237 7.21687 15.1541 7.04417 15.0498 6.97504L11.5726 4.28165L13.5547 1.89897C13.6244 1.7954 13.659 1.65714 13.5894 1.51912C13.5198 1.3811 13.4155 1.31197 13.2765 1.31197H8.61719C8.54757 1.31197 8.4782 1.34642 8.40859 1.3811L8.37318 1.45023L7.08669 0.31072C7.01708 0.241591 6.94771 0.241591 6.8781 0.207147L2.2881 0H2.21849H2.18381C2.14912 0 2.1142 0.0344435 2.07951 0.0344435L1.97521 0.138017L0.167023 3.24565C0.132339 3.34923 0.0974111 3.4528 0.132339 3.52193L1.48844 7.28571L0.0280235 11.3604C-0.0415883 11.4985 0.0280237 11.6712 0.13232 11.7403C0.201932 11.8094 0.271301 11.8439 0.37584 11.8439L0.375908 11.8438ZM4.33988 13.4324L3.22707 10.0829L4.65277 10.1173L5.10487 13.4324L4.33988 13.4324ZM6.18279 9.39228H6.21747C7.60822 9.39228 9.06888 8.42542 9.55568 7.21679C9.65998 6.94051 9.69466 6.66424 9.69466 6.38799L9.90325 6.59514L8.79044 9.53037L6.04359 9.49592H4.89613L4.86144 8.97782C5.20926 9.21965 5.66113 9.35767 6.18283 9.39236L6.18279 9.39228ZM4.96565 7.14767C5.31347 6.21528 6.56528 5.42113 7.64314 5.42113H7.67782C8.1993 5.42113 8.61672 5.59383 8.82529 5.90455C9.03388 6.18083 9.03388 6.56069 8.8949 6.97494C8.54708 7.9418 7.29528 8.73594 6.1827 8.70147C5.66123 8.70147 5.24381 8.52877 5.03524 8.21805C4.86133 7.90733 4.82664 7.5275 4.96563 7.14767H4.96565ZM10.4596 7.04409L13.5543 9.70301L13.1022 10.8425L9.45107 9.59942L10.4596 7.04409ZM10.0424 6.21529L9.55561 5.801C9.52092 5.69743 9.45131 5.59385 9.3817 5.49028C9.03388 5.00686 8.40809 4.69614 7.67782 4.69614C6.25212 4.66169 4.79177 5.62853 4.30496 6.87163C4.06144 7.45862 4.13106 8.04561 4.40926 8.52904L4.51356 9.42677H3.19217L5.03507 4.62701L7.85152 4.66146L10.5984 4.6959L10.0424 6.21529ZM5.00031 10.1173L8.65141 10.1518L8.40788 13.4668L5.45216 13.4324L5.00031 10.1173ZM17.0313 24.6547C10.7724 24.6547 6.56504 23.2736 6.56504 21.9613C6.56504 20.649 10.7723 19.2679 17.0313 19.2679C23.2904 19.2679 27.4976 20.649 27.4976 21.9613C27.4976 23.2733 23.2904 24.6547 17.0313 24.6547ZM28.6103 13.4323L25.6546 13.4667L25.4111 10.1516L29.0622 10.1172L28.6103 13.4323ZM29.7229 6.90597C29.2361 5.66287 27.7757 4.69601 26.35 4.73048C25.6197 4.73048 24.9939 5.0412 24.6462 5.52462C24.5765 5.62819 24.5419 5.73177 24.4722 5.83534L23.9855 6.24963L23.3944 4.69582L26.1412 4.66137L28.9577 4.62693L30.8357 9.39222H29.5143L29.6186 8.49448C29.9317 8.07995 29.9664 7.49297 29.7229 6.90595L29.7229 6.90597ZM29.0275 8.18354C28.8189 8.49426 28.4017 8.66696 27.88 8.66696C26.7672 8.7014 25.5503 7.87282 25.1679 6.94043C25.0289 6.52613 25.0289 6.18075 25.2375 5.87004C25.4461 5.55932 25.8632 5.38662 26.3849 5.38662H26.4196C27.5324 5.38662 28.7493 6.18076 29.0971 7.11315C29.2361 7.52745 29.2014 7.9073 29.0275 8.18354H29.0275ZM24.5767 9.63383L20.9256 10.8769L20.5085 9.70295L23.6031 7.04403L24.5767 9.63383ZM24.1595 6.5606L24.3681 6.35345C24.3681 6.62973 24.4028 6.906 24.5071 7.18225C24.9592 8.42535 26.4196 9.35774 27.8453 9.35774H27.88C28.4015 9.35774 28.8536 9.21973 29.2014 8.94345L29.1318 9.39242H28.0539L25.2375 9.42687L24.1595 6.5606ZM29.7229 13.4322H28.9926L29.4447 10.1171L30.8704 10.0827L29.7229 13.4322ZM32.9915 10.5314L31.6354 9.53018L30.2097 5.7664L31.9483 7.63093L32.9915 10.5314ZM33.2001 3.48719L32.0179 6.73313L29.6536 4.21245L31.7746 1.00123L33.2001 3.48719ZM27.3239 0.931858L31.1139 0.759155L29.0972 3.79791L26.2458 1.86426L27.3239 0.931858ZM21.4821 2.00249H25.2721L28.1235 3.93615L23.1164 4.00528L21.4821 2.00249ZM19.6045 7.38921L22.7688 4.90301L23.4642 6.69866L20.3695 9.35758L19.6045 7.38921ZM19.9521 10.1861L20.4389 11.4292C20.5085 11.5673 20.6128 11.6364 20.7518 11.6364C20.7865 11.6364 20.8214 11.6364 20.8561 11.6019L24.7158 10.2897L24.994 13.8464C24.994 14.0191 25.1679 14.1571 25.3418 14.1571L28.5408 14.1226L27.6019 21.2705C27.3933 21.0287 27.1151 20.7871 26.7326 20.5799L17.3094 12.4652L19.9521 10.1861ZM25.62 20.0964C23.5335 19.3368 20.2303 18.9225 17.0313 18.9225C13.8324 18.9225 10.529 19.3367 8.44273 20.0964L17.0313 12.7069L25.62 20.0964ZM16.7532 12.4652L7.36481 20.5799C6.98231 20.787 6.66944 21.0288 6.49551 21.2704L5.55662 14.1226L8.75561 14.157C8.92952 14.157 9.10343 14.019 9.10343 13.8463L9.38164 10.2896L13.2064 11.6366C13.2411 11.6366 13.276 11.671 13.3107 11.671C13.4497 11.671 13.5889 11.6019 13.6236 11.4639L14.1104 10.2208L16.7532 12.4652ZM14.4582 7.38915L13.6932 9.39193L10.5985 6.73301L11.2939 4.93735L14.4582 7.38915ZM8.79057 2.00243H12.5806L10.9464 3.9708L5.93917 3.90167L8.79057 2.00243ZM6.73885 0.931796L7.78207 1.86419L4.93066 3.79784L2.9139 0.759081L6.73885 0.931796ZM0.862619 3.48713L2.28832 1.00092L4.4094 4.21215L2.04504 6.73282L0.862619 3.48713ZM2.14911 7.63074L3.8877 5.76621L2.46199 9.52999L1.1059 10.5313L2.14911 7.63074Z" fill="#FF6600"/>
</svg>
