<svg width="34" height="25" viewBox="0 0 34 25" fill="none" xmlns="http://www.w3.org/2000/svg">
<path d="M0.530991 24.9999H33.4687C33.7621 24.9999 34 24.7566 34 24.4564C34 24.1563 33.7621 23.913 33.4687 23.913H0.530991C0.237617 23.913 -0.000263214 24.1563 -0.000263214 24.4564C-0.000263214 24.7566 0.237617 24.9999 0.530991 24.9999Z" fill="#FF6600"/>
<path d="M0.530991 2.71736H33.4687C33.6096 2.71736 33.7448 2.66011 33.8444 2.5582C33.944 2.4563 34 2.31801 34 2.17389V0.543473C34 0.399356 33.944 0.26106 33.8444 0.15916C33.7448 0.0572603 33.6096 0 33.4687 0H0.530991C0.390114 0 0.254929 0.0572591 0.155319 0.15916C0.0557098 0.261061 -0.000263214 0.399356 -0.000263214 0.543473V2.17389C-0.000263214 2.31801 0.0557098 2.45631 0.155319 2.5582C0.254929 2.6601 0.390114 2.71736 0.530991 2.71736ZM32.9375 1.63042H1.06224V1.08695H32.9375V1.63042Z" fill="#FF6600"/>
<path d="M32.9378 24.9995C33.0787 24.9995 33.2139 24.9422 33.3135 24.8403C33.4131 24.7384 33.4691 24.6001 33.4691 24.456V2.1736C33.4691 1.87348 33.2312 1.63013 32.9378 1.63013C32.6444 1.63013 32.4065 1.87348 32.4065 2.1736V24.456C32.4065 24.6001 32.4625 24.7384 32.5621 24.8403C32.6617 24.9422 32.7969 24.9995 32.9378 24.9995Z" fill="#FF6600"/>
<path d="M1.0625 24.9995C1.20337 24.9995 1.33856 24.9422 1.43817 24.8403C1.53778 24.7384 1.59375 24.6001 1.59375 24.456V2.1736C1.59375 1.87348 1.35587 1.63013 1.0625 1.63013C0.769122 1.63013 0.531242 1.87348 0.531242 2.1736V24.456C0.531242 24.6001 0.587214 24.7384 0.686823 24.8403C0.786433 24.9422 0.921619 24.9995 1.0625 24.9995Z" fill="#FF6600"/>
<path d="M3.18691 24.9993H30.8121C30.953 24.9993 31.0882 24.9421 31.1878 24.8402C31.2874 24.7383 31.3434 24.6 31.3434 24.4559V6.52126C31.3434 6.37714 31.2874 6.23884 31.1878 6.13694C31.0882 6.03504 30.953 5.97778 30.8121 5.97778H3.18691C3.04604 5.97778 2.91085 6.03504 2.81124 6.13694C2.71163 6.23884 2.65566 6.37714 2.65566 6.52126V24.4559C2.65566 24.6 2.71163 24.7383 2.81124 24.8402C2.91085 24.9421 3.04604 24.9993 3.18691 24.9993ZM30.2809 23.9124H3.71817V7.06473H30.2809V23.9124Z" fill="#FF6600"/>
<path d="M3.18691 8.69534H30.8121C31.1055 8.69534 31.3434 8.45199 31.3434 8.15187C31.3434 7.85175 31.1055 7.6084 30.8121 7.6084H3.18691C2.89354 7.6084 2.65566 7.85175 2.65566 8.15187C2.65566 8.45199 2.89354 8.69534 3.18691 8.69534Z" fill="#FF6600"/>
<path d="M3.18691 10.326H30.8121C31.1055 10.326 31.3434 10.0826 31.3434 9.78249C31.3434 9.48237 31.1055 9.23901 30.8121 9.23901H3.18691C2.89354 9.23901 2.65566 9.48237 2.65566 9.78249C2.65566 10.0826 2.89354 10.326 3.18691 10.326Z" fill="#FF6600"/>
<path d="M22.3127 24.9999H26.5627C26.7036 24.9999 26.8388 24.9427 26.9384 24.8408C27.038 24.7389 27.094 24.6006 27.094 24.4564V20.1087C27.094 19.9645 27.038 19.8262 26.9384 19.7243C26.8388 19.6224 26.7036 19.5652 26.5627 19.5652H22.3127C22.1718 19.5652 22.0366 19.6224 21.937 19.7243C21.8374 19.8262 21.7815 19.9645 21.7815 20.1087V24.4564C21.7815 24.6006 21.8374 24.7389 21.937 24.8408C22.0366 24.9427 22.1718 24.9999 22.3127 24.9999ZM26.0315 23.913H22.844V20.6521H26.0315V23.913Z" fill="#FF6600"/>
<path d="M24.4371 21.7391C24.5779 21.7391 24.7131 21.6818 24.8127 21.5799C24.9123 21.478 24.9683 21.3397 24.9683 21.1956V20.1087C24.9683 19.8085 24.7304 19.5652 24.4371 19.5652C24.1437 19.5652 23.9058 19.8085 23.9058 20.1087V21.1956C23.9058 21.3397 23.9618 21.478 24.0614 21.5799C24.161 21.6818 24.2962 21.7391 24.4371 21.7391Z" fill="#FF6600"/>
<path d="M26.5621 24.9999H30.8121C30.953 24.9999 31.0882 24.9427 31.1878 24.8408C31.2874 24.7389 31.3434 24.6006 31.3434 24.4564V20.1087C31.3434 19.9645 31.2874 19.8262 31.1878 19.7243C31.0882 19.6224 30.953 19.5652 30.8121 19.5652H26.5621C26.4212 19.5652 26.286 19.6224 26.1864 19.7243C26.0868 19.8262 26.0308 19.9645 26.0308 20.1087V24.4564C26.0308 24.6006 26.0868 24.7389 26.1864 24.8408C26.286 24.9427 26.4212 24.9999 26.5621 24.9999ZM30.2809 23.913H27.0934V20.6521H30.2809V23.913Z" fill="#FF6600"/>
<path d="M28.6874 21.7391C28.8283 21.7391 28.9635 21.6818 29.0631 21.5799C29.1627 21.478 29.2187 21.3397 29.2187 21.1956V20.1087C29.2187 19.8085 28.9808 19.5652 28.6874 19.5652C28.3941 19.5652 28.1562 19.8085 28.1562 20.1087V21.1956C28.1562 21.3397 28.2122 21.478 28.3118 21.5799C28.4114 21.6818 28.5466 21.7391 28.6874 21.7391Z" fill="#FF6600"/>
<path d="M26.5621 20.652H30.8121C30.953 20.652 31.0882 20.5948 31.1878 20.4929C31.2874 20.391 31.3434 20.2527 31.3434 20.1085V15.7608C31.3434 15.6166 31.2874 15.4783 31.1878 15.3764C31.0882 15.2745 30.953 15.2173 30.8121 15.2173H26.5621C26.4212 15.2173 26.286 15.2745 26.1864 15.3764C26.0868 15.4783 26.0308 15.6166 26.0308 15.7608V20.1085C26.0308 20.2527 26.0868 20.391 26.1864 20.4929C26.286 20.5948 26.4212 20.652 26.5621 20.652ZM30.2809 19.5651H27.0934V16.3042H30.2809V19.5651Z" fill="#FF6600"/>
<path d="M28.6874 17.3912C28.8283 17.3912 28.9635 17.3339 29.0631 17.232C29.1627 17.1301 29.2187 16.9918 29.2187 16.8477V15.7608C29.2187 15.4606 28.9808 15.2173 28.6874 15.2173C28.3941 15.2173 28.1562 15.4606 28.1562 15.7608V16.8477C28.1562 16.9918 28.2122 17.1301 28.3118 17.232C28.4114 17.3339 28.5466 17.3912 28.6874 17.3912Z" fill="#FF6600"/>
<path d="M7.43893 24.9999H11.689C11.8298 24.9999 11.965 24.9427 12.0646 24.8408C12.1642 24.7389 12.2202 24.6006 12.2202 24.4564V20.1087C12.2202 19.9645 12.1642 19.8262 12.0646 19.7243C11.965 19.6224 11.8298 19.5652 11.689 19.5652H7.43893C7.29805 19.5652 7.16286 19.6224 7.06326 19.7243C6.96365 19.8262 6.90767 19.9645 6.90767 20.1087V24.4564C6.90767 24.6006 6.96365 24.7389 7.06326 24.8408C7.16287 24.9427 7.29805 24.9999 7.43893 24.9999ZM11.1577 23.913H7.97018V20.6521H11.1577V23.913Z" fill="#FF6600"/>
<path d="M9.56225 21.7391C9.70313 21.7391 9.83832 21.6818 9.93792 21.5799C10.0375 21.478 10.0935 21.3397 10.0935 21.1956V20.1087C10.0935 19.8085 9.85563 19.5652 9.56225 19.5652C9.26888 19.5652 9.031 19.8085 9.031 20.1087V21.1956C9.031 21.3397 9.08697 21.478 9.18658 21.5799C9.28619 21.6818 9.42138 21.7391 9.56225 21.7391Z" fill="#FF6600"/>
<path d="M3.18557 24.9999H7.4356C7.57648 24.9999 7.71167 24.9427 7.81128 24.8408C7.91088 24.7389 7.96686 24.6006 7.96686 24.4564V20.1087C7.96686 19.9645 7.91089 19.8262 7.81128 19.7243C7.71167 19.6224 7.57648 19.5652 7.4356 19.5652H3.18557C3.04469 19.5652 2.90951 19.6224 2.8099 19.7243C2.71029 19.8262 2.65432 19.9645 2.65432 20.1087V24.4564C2.65432 24.6006 2.71029 24.7389 2.8099 24.8408C2.90951 24.9427 3.04469 24.9999 3.18557 24.9999ZM6.90435 23.913H3.71683V20.6521H6.90435V23.913Z" fill="#FF6600"/>
<path d="M5.31189 21.7391C5.45276 21.7391 5.58795 21.6818 5.68756 21.5799C5.78717 21.478 5.84314 21.3397 5.84314 21.1956V20.1087C5.84314 19.8085 5.60526 19.5652 5.31189 19.5652C5.01851 19.5652 4.78063 19.8085 4.78063 20.1087V21.1956C4.78063 21.3397 4.8366 21.478 4.93621 21.5799C5.03582 21.6818 5.17101 21.7391 5.31189 21.7391Z" fill="#FF6600"/>
<path d="M3.18557 20.652H7.4356C7.57648 20.652 7.71167 20.5948 7.81128 20.4929C7.91088 20.391 7.96686 20.2527 7.96686 20.1085V15.7608C7.96686 15.6166 7.91089 15.4783 7.81128 15.3764C7.71167 15.2745 7.57648 15.2173 7.4356 15.2173H3.18557C3.04469 15.2173 2.90951 15.2745 2.8099 15.3764C2.71029 15.4783 2.65432 15.6166 2.65432 15.7608V20.1085C2.65432 20.2527 2.71029 20.391 2.8099 20.4929C2.90951 20.5948 3.04469 20.652 3.18557 20.652ZM6.90435 19.5651H3.71683V16.3042H6.90435V19.5651Z" fill="#FF6600"/>
<path d="M5.31189 17.3912C5.45276 17.3912 5.58795 17.3339 5.68756 17.232C5.78717 17.1301 5.84314 16.9918 5.84314 16.8477V15.7608C5.84314 15.4606 5.60526 15.2173 5.31189 15.2173C5.01851 15.2173 4.78063 15.4606 4.78063 15.7608V16.8477C4.78063 16.9918 4.8366 17.1301 4.93621 17.232C5.03582 17.3339 5.17101 17.3912 5.31189 17.3912Z" fill="#FF6600"/>
<path d="M14.8758 4.89115H19.1259C19.4192 4.89115 19.6571 4.64779 19.6571 4.34767C19.6571 4.04755 19.4192 3.8042 19.1259 3.8042H14.8758C14.5824 3.8042 14.3446 4.04755 14.3446 4.34767C14.3446 4.64779 14.5824 4.89115 14.8758 4.89115Z" fill="#FF6600"/>
</svg>
